<svg width="16" height="16" fill="none" xmlns="http://www.w3.org/2000/svg"><path fill="#000" d="M0 0h16v16H0z"/><path d="M2.544 5.443L6.406 6.76l1.069.767-.356-1.279V2h1.8v4.25l-.357 1.317L9.595 6.8l3.862-1.279.544 1.79-3.863 1.319-1.218.059.956.747 2.381 3.443L10.775 14l-2.381-3.462-.413-1.22-.45 1.22L5.15 13.98l-1.444-1.12 2.382-3.443.993-.767-1.219-.059L2 7.252l.544-1.81z" fill="#fff"/><path d="M2.544 5.443L6.406 6.76l1.069.767-.356-1.279V2h1.8v4.25l-.357 1.317L9.595 6.8l3.862-1.279.544 1.79-3.863 1.319-1.218.059.956.747 2.381 3.443L10.775 14l-2.381-3.462-.413-1.22-.45 1.22L5.15 13.98l-1.444-1.12 2.382-3.443.993-.767-1.219-.059L2 7.252l.544-1.81z" fill="#1D4BEF"/></svg>