<svg width="32" height="32" fill="none" xmlns="http://www.w3.org/2000/svg"><path fill="#000" d="M0 0h32v32H0z"/><path d="M5.088 10.885l7.724 2.636 2.138 1.535-.712-2.558V4h3.6v8.498l-.713 2.636 2.063-1.534 7.725-2.557L28 14.623l-7.725 2.636-2.438.118 1.913 1.495 4.762 6.885L21.55 28l-4.762-6.925-.825-2.439-.9 2.44L10.3 27.96l-2.888-2.243 4.763-6.885 1.987-1.535-2.437-.118L4 14.505l1.088-3.62z" fill="#fff"/><path d="M5.088 10.885l7.724 2.636 2.138 1.535-.712-2.558V4h3.6v8.498l-.713 2.636 2.063-1.534 7.725-2.557L28 14.623l-7.725 2.636-2.438.118 1.913 1.495 4.762 6.885L21.55 28l-4.762-6.925-.825-2.439-.9 2.44L10.3 27.96l-2.888-2.243 4.763-6.885 1.987-1.535-2.437-.118L4 14.505l1.088-3.62z" fill="#1D4BEF"/></svg>