<svg width="48" height="48" fill="none" xmlns="http://www.w3.org/2000/svg"><path fill="#000" d="M0 0h48v48H0z"/><path d="M7.631 16.328l11.588 3.954 3.206 2.302-1.069-3.837V6h5.4v12.747l-1.069 3.955 3.094-2.302 11.588-3.836L42 21.934l-11.587 3.954-3.657.178 2.869 2.242 7.144 10.328L32.325 42l-7.144-10.387-1.237-3.659-1.35 3.66L15.45 41.94l-4.331-3.364 7.143-10.328 2.982-2.301-3.657-.178L6 21.758l1.631-5.43z" fill="#fff"/><path d="M7.631 16.328l11.588 3.954 3.206 2.302-1.069-3.837V6h5.4v12.747l-1.069 3.955 3.094-2.302 11.588-3.836L42 21.934l-11.587 3.954-3.657.178 2.869 2.242 7.144 10.328L32.325 42l-7.144-10.387-1.237-3.659-1.35 3.66L15.45 41.94l-4.331-3.364 7.143-10.328 2.982-2.301-3.657-.178L6 21.758l1.631-5.43z" fill="#1D4BEF"/></svg>