<svg width="24" height="25" fill="none" xmlns="http://www.w3.org/2000/svg"><path fill-rule="evenodd" clip-rule="evenodd" d="M19.5.5C21.984.5 24 2.516 24 5v15c0 2.483-2.017 4.5-4.5 4.5h-15A4.502 4.502 0 010 20V5C0 2.516 2.016.5 4.5.5h15zM3.557 20.951H7.12V9.498H3.557V20.95zm16.895 0V14.67c0-3.085-.666-5.457-4.27-5.457-1.732 0-2.894.95-3.368 1.85h-.049V9.499H9.352V20.95h3.556v-5.665c0-1.494.282-2.942 2.135-2.942 1.827 0 1.85 1.71 1.85 3.037v5.57h3.559zM5.339 7.932a2.064 2.064 0 10-.002-4.128 2.064 2.064 0 00.002 4.128z" fill="#fff"/></svg>