<svg width="120" height="58" fill="none" xmlns="http://www.w3.org/2000/svg"><path d="M.979 1.29H5.05a3.527 3.527 0 012.496.834 2.97 2.97 0 01.882 2.28 2.504 2.504 0 01-.506 1.626 2.719 2.719 0 01-1.366.866v.087c.63.127 1.209.445 1.657.91a2.72 2.72 0 01.623 1.896c.005.46-.075.917-.236 1.348a2.95 2.95 0 01-1.753 1.782 3.688 3.688 0 01-1.361.244H.979V1.29zm3.684 5.108c.48.031.956-.092 1.36-.352a1.354 1.354 0 00.463-1.165V4.27a1.38 1.38 0 00-.462-1.164 2.246 2.246 0 00-1.361-.352H2.834v3.645h1.829zm.269 5.308a2.343 2.343 0 001.452-.39 1.489 1.489 0 00.51-1.262v-.612a1.494 1.494 0 00-.51-1.257 2.343 2.343 0 00-1.452-.395H2.834v3.916h2.098zm10.218 1.668c-.612.01-1.22-.1-1.79-.325a3.544 3.544 0 01-1.329-.926 3.993 3.993 0 01-.828-1.44 5.766 5.766 0 01-.29-1.896 5.88 5.88 0 01.295-1.907c.18-.535.461-1.03.828-1.457.362-.388.805-.69 1.297-.883a4.536 4.536 0 013.345 0c.483.2.915.508 1.264.9.357.399.632.866.806 1.375.191.57.286 1.17.28 1.771v.699h-6.255v.287a2.3 2.3 0 00.64 1.68 2.396 2.396 0 001.775.65 2.723 2.723 0 001.447-.364c.398-.238.733-.57.973-.97l1.146 1.014a3.524 3.524 0 01-1.34 1.294 4.378 4.378 0 01-2.258.51l-.006-.012zm-.123-7.75a2.336 2.336 0 00-.904.173c-.27.105-.512.27-.71.482a2.289 2.289 0 00-.468.742 2.501 2.501 0 00-.166.937v.119h4.399v-.173a2.307 2.307 0 00-.586-1.658 2.01 2.01 0 00-1.565-.623zm10.654 7.583a2.137 2.137 0 01-1.689-.618 2.35 2.35 0 01-.538-1.625V5.921h-2.689V4.405h1.915a.98.98 0 00.688-.195.946.946 0 00.205-.705V1.29h1.726v3.098h3.711v1.517h-3.716v5.752h3.716v1.55h-3.33zm10.036 0a2.137 2.137 0 01-1.69-.618 2.35 2.35 0 01-.537-1.625V5.921H30.8V4.405h1.916a.98.98 0 00.688-.195.975.975 0 00.204-.705V1.29h1.727v3.098h3.716v1.517h-3.716v5.752h3.716v1.55h-3.334zm9.68.205a4.715 4.715 0 01-1.79-.325 3.587 3.587 0 01-1.334-.915 4.075 4.075 0 01-.829-1.44 6.37 6.37 0 010-3.792c.178-.537.46-1.032.829-1.458a3.59 3.59 0 011.29-.926 4.536 4.536 0 013.346 0c.483.202.917.51 1.269.9.356.4.629.867.801 1.375.194.57.288 1.17.28 1.771v.7h-6.266v.286a2.285 2.285 0 00.646 1.68 2.379 2.379 0 001.774.65 2.717 2.717 0 001.442-.364c.4-.236.734-.57.973-.97l1.151 1.025c-.326.543-.79.99-1.344 1.294a4.363 4.363 0 01-2.248.482l.01.027zm-.145-7.789a2.336 2.336 0 00-.903.174c-.268.107-.51.272-.71.482a2.27 2.27 0 00-.463.742 2.502 2.502 0 00-.172.937v.119h4.378v-.173a2.323 2.323 0 00-.58-1.658 2.027 2.027 0 00-1.55-.623zm6.008 6.061h2.318V5.916H51.26V4.399h4.157v2.335h.102c.081-.308.195-.606.339-.889a2.626 2.626 0 011.382-1.25 3.105 3.105 0 011.151-.196h1.076v1.766H57.74a2.314 2.314 0 00-1.65.601 2.103 2.103 0 00-.646 1.625v3.25h3.146v1.566h-7.33v-1.523zM61.817.586h1.84V5.9h.085c.091-.23.207-.45.345-.656a2.14 2.14 0 01.537-.541 2.44 2.44 0 01.71-.363 2.9 2.9 0 01.947-.141 2.779 2.779 0 012.151.872c.578.684.87 1.568.812 2.464v5.671H67.4V7.79c0-1.394-.603-2.09-1.808-2.09-.234 0-.467.03-.693.091-.217.06-.422.156-.608.282a1.46 1.46 0 00-.43.477c-.11.204-.166.433-.162.666v5.958h-1.882V.586zm16.796 12.62a1.603 1.603 0 01-1.194-.406 1.798 1.798 0 01-.478-1.083h-.065c-.15.512-.476.954-.92 1.246a3.038 3.038 0 01-1.7.439 3.094 3.094 0 01-2.15-.705 2.476 2.476 0 01-.791-1.95 2.262 2.262 0 01.936-1.95 4.962 4.962 0 012.882-.671h1.673v-.683c0-1.191-.63-1.787-1.877-1.787a2.513 2.513 0 00-1.371.336c-.351.226-.65.525-.877.877l-1.076-.904a3.16 3.16 0 011.248-1.235 4.411 4.411 0 012.264-.542 3.912 3.912 0 012.603.802 2.843 2.843 0 01.947 2.312v4.41h1.076v1.495h-1.13zm-3.85-1.153a2.478 2.478 0 001.468-.407 1.236 1.236 0 00.575-1.05V9.328h-1.64c-1.329 0-1.996.401-1.996 1.203v.335a1.01 1.01 0 00.425.889c.352.209.76.304 1.167.27v.028zm7.195 1.153V4.4h1.84v1.5h.07c.09-.23.206-.45.344-.655a2.36 2.36 0 01.538-.541 2.44 2.44 0 01.71-.363 2.95 2.95 0 01.946-.141 2.763 2.763 0 012.151.872 3.45 3.45 0 01.813 2.464v5.671h-1.845V7.79c0-1.394-.603-2.09-1.807-2.09-.234 0-.468.03-.694.091a2.172 2.172 0 00-.608.282 1.458 1.458 0 00-.43.477c-.11.204-.166.433-.161.666v5.958l-1.867.033zm15.834-1.495h-.102a3.244 3.244 0 01-1.028 1.252 2.76 2.76 0 01-1.613.45 2.95 2.95 0 01-2.453-1.16c-.607-.769-.909-1.917-.909-3.434 0-1.517.302-2.665.91-3.44a2.967 2.967 0 012.453-1.16 2.723 2.723 0 011.612.456c.445.32.799.752 1.028 1.252h.102V.586h1.844v12.62h-1.844v-1.495zm-1.98.185c.258.002.515-.031.764-.098.225-.064.437-.168.624-.309a1.449 1.449 0 00.592-1.208V7.358c.006-.247-.05-.49-.162-.71a1.54 1.54 0 00-.43-.504 1.812 1.812 0 00-.624-.303 2.67 2.67 0 00-.763-.103 2.047 2.047 0 00-1.614.645 2.536 2.536 0 00-.565 1.722v1.43a2.51 2.51 0 00.565 1.717 2.041 2.041 0 001.614.618v.027zM1.044 33.606v-11.88h7.573v1.626H2.92v3.455h5.174v1.566H2.92V33.6l-1.877.005zm9.353-1.517h2.974v-5.753h-2.99v-1.511h4.84v7.264h2.765v1.516H10.38l.016-1.516zm3.905-8.867a1.334 1.334 0 01-.99-.287.987.987 0 01-.28-.715v-.347a.99.99 0 01.28-.715 1.298 1.298 0 01.968-.287 1.336 1.336 0 01.99.287.987.987 0 01.28.715v.357a.992.992 0 01-.28.715 1.31 1.31 0 01-.985.277h.017zm5.98 10.383v-8.78h1.84v1.495h.086c.093-.23.21-.45.35-.655.148-.21.33-.392.537-.542a2.45 2.45 0 01.71-.368 2.95 2.95 0 01.947-.136 2.758 2.758 0 012.15.867c.58.685.871 1.571.813 2.47v5.65h-1.93v-5.38c0-1.397-.603-2.09-1.808-2.09a2.484 2.484 0 00-.694.092 1.955 1.955 0 00-.608.281 1.406 1.406 0 00-.43.477c-.11.202-.166.43-.161.661v5.958H20.28zm17.5 0a1.604 1.604 0 01-1.188-.406 1.837 1.837 0 01-.484-1.083h-.107c-.15.51-.477.95-.92 1.24-.51.315-1.102.47-1.7.444a3.1 3.1 0 01-2.15-.71 2.46 2.46 0 01-.791-1.944 2.255 2.255 0 01.935-1.95 4.963 4.963 0 012.883-.672h1.673v-.693c0-1.191-.626-1.787-1.877-1.787a2.502 2.502 0 00-1.366.33 2.909 2.909 0 00-.882.878l-1.076-.9a3.18 3.18 0 011.253-1.235 4.385 4.385 0 012.264-.541 3.901 3.901 0 012.603.802 2.849 2.849 0 01.942 2.312v4.474h1.075v1.463l-1.086-.022zm-3.85-1.159a2.48 2.48 0 001.468-.406 1.226 1.226 0 00.576-1.046v-1.267H34.36c-1.328 0-1.995.4-1.995 1.197v.341a1.025 1.025 0 00.409.9c.344.204.74.302 1.14.281h.016zm7.637 1.16v-8.781h1.845v1.495h.08c.092-.23.21-.45.35-.655a2.16 2.16 0 01.538-.542c.212-.162.45-.287.704-.368.307-.097.626-.142.947-.136a2.758 2.758 0 012.151.867c.58.685.87 1.571.812 2.47v5.65h-1.839v-5.38c0-1.397-.602-2.09-1.812-2.09a2.451 2.451 0 00-.737.07 1.897 1.897 0 00-.608.282 1.32 1.32 0 00-.592 1.137v5.959l-1.839.021zm14.3.205a4.45 4.45 0 01-1.747-.325 3.522 3.522 0 01-1.302-.92 4.02 4.02 0 01-.812-1.447 6.637 6.637 0 010-3.792c.17-.532.447-1.025.812-1.446a3.512 3.512 0 011.302-.915 4.395 4.395 0 011.732-.325 3.712 3.712 0 012.15.574c.537.37.96.885 1.222 1.484l-1.436.785a2.123 2.123 0 00-.716-.97c-.365-.25-.8-.375-1.242-.357a2.056 2.056 0 00-1.613.64 2.47 2.47 0 00-.576 1.706v1.468a2.47 2.47 0 00.576 1.695 2.102 2.102 0 001.656.65 2.2 2.2 0 001.328-.374 2.59 2.59 0 00.818-1.023l1.35.834a3.578 3.578 0 01-1.28 1.5 3.942 3.942 0 01-2.237.536l.016.022zm6.266-1.722h2.975v-5.753h-2.975v-1.511h4.84v7.264h2.787v1.516h-7.643l.016-1.516zm3.905-8.867a1.343 1.343 0 01-.995-.266.988.988 0 01-.28-.715v-.368a.99.99 0 01.28-.715 1.319 1.319 0 01.973-.287c.355-.04.71.063.99.287.182.192.28.45.274.715v.357c.006.266-.092.523-.274.715a1.319 1.319 0 01-.984.277h.016zm12.45 10.383a1.604 1.604 0 01-1.188-.406 1.87 1.87 0 01-.484-1.083h-.08c-.155.51-.483.949-.926 1.24a2.98 2.98 0 01-1.694.444 3.078 3.078 0 01-2.151-.71 2.448 2.448 0 01-.796-1.944 2.255 2.255 0 01.936-1.95 4.973 4.973 0 012.882-.672h1.673v-.693c0-1.191-.626-1.787-1.877-1.787a2.52 2.52 0 00-1.366.33c-.344.24-.632.552-.845.916l-1.102-.9a3.18 3.18 0 011.253-1.235 4.402 4.402 0 012.264-.541 3.902 3.902 0 012.603.801 2.854 2.854 0 01.947 2.313v4.436h1.076v1.463l-1.125-.022zm-3.85-1.159a2.48 2.48 0 001.468-.406 1.215 1.215 0 00.575-1.046v-1.267H75.07c-1.329 0-1.99.4-1.99 1.197v.341a1.023 1.023 0 00.42.889c.341.206.736.308 1.134.292h.006zm7.325-.357h2.888v-9.56h-2.888v-1.517h4.733v11.077h2.888v1.516h-7.627l.006-1.516zM5.594 43.75v10.292H3.7V43.75H0v-1.625h9.294v1.625h-3.7zm8.314 10.481c-.612.009-1.22-.1-1.79-.32a3.666 3.666 0 01-1.335-.92 4.073 4.073 0 01-.828-1.44 6.37 6.37 0 010-3.792 4.205 4.205 0 01.828-1.452 3.539 3.539 0 011.291-.932 4.276 4.276 0 011.689-.32 4.186 4.186 0 011.656.315c.485.196.922.495 1.28.877.358.399.631.867.802 1.376.192.57.287 1.17.28 1.771v.7h-6.255v.286a2.305 2.305 0 00.645 1.685 2.379 2.379 0 001.78.682 2.765 2.765 0 001.441-.363 2.85 2.85 0 00.974-.975l1.15 1.024c-.325.545-.79.994-1.344 1.3a4.417 4.417 0 01-2.264.498zm-.134-7.778a2.333 2.333 0 00-.904.174c-.267.11-.509.273-.71.482a2.33 2.33 0 00-.462.742 2.502 2.502 0 00-.173.937v.119h4.378v-.173a2.339 2.339 0 00-.58-1.658 2.044 2.044 0 00-1.55-.623zm10.697 7.778a4.532 4.532 0 01-1.748-.32 3.586 3.586 0 01-1.302-.92 4.02 4.02 0 01-.812-1.446 6.637 6.637 0 010-3.792 4.02 4.02 0 01.812-1.446c.36-.401.805-.716 1.302-.92a4.393 4.393 0 011.732-.32 3.745 3.745 0 012.15.568c.537.373.96.89 1.222 1.49l-1.415.747a2.165 2.165 0 00-.715-.97 2.038 2.038 0 00-1.242-.357 2.064 2.064 0 00-1.614.645 2.465 2.465 0 00-.575 1.7v1.474a2.475 2.475 0 00.575 1.695 2.102 2.102 0 001.657.65c.47.021.936-.11 1.328-.373a2.59 2.59 0 00.818-1.024l1.35.834a3.535 3.535 0 01-1.28 1.495 3.899 3.899 0 01-2.243.59zm6.335-12.799h1.845v5.314h.08c.095-.23.212-.45.35-.656.148-.21.33-.393.538-.541.214-.162.454-.284.71-.363a2.91 2.91 0 01.947-.136 2.752 2.752 0 012.124.867c.578.684.87 1.568.812 2.465v5.654h-1.84v-5.378c0-1.398-.602-2.096-1.806-2.096-.235 0-.469.032-.694.097a1.892 1.892 0 00-.608.276 1.313 1.313 0 00-.591 1.143v5.958h-1.845l-.022-12.604zm10.407 12.599v-8.786h1.84v1.5h.086a3.62 3.62 0 01.344-.655 2.36 2.36 0 01.538-.541 2.41 2.41 0 01.71-.363c.306-.097.625-.142.946-.136a2.773 2.773 0 012.151.867c.579.684.87 1.568.812 2.465v5.654h-1.882v-5.378c0-1.398-.602-2.096-1.807-2.096-.235 0-.468.032-.694.097a1.94 1.94 0 00-.607.276 1.459 1.459 0 00-.43.477c-.11.204-.166.434-.162.666v5.958l-1.845-.005zm14.129.2a4.51 4.51 0 01-1.732-.32 3.635 3.635 0 01-1.302-.92 4.031 4.031 0 01-.817-1.446 6.403 6.403 0 010-3.792c.17-.534.448-1.026.817-1.446.361-.4.806-.714 1.302-.92a4.85 4.85 0 013.463 0c.496.206.94.52 1.302.92.37.42.648.912.818 1.446a6.403 6.403 0 010 3.792 4.033 4.033 0 01-.818 1.446c-.361.4-.806.714-1.302.92a4.51 4.51 0 01-1.71.32h-.021zm0-1.462a2.136 2.136 0 001.613-.623 2.563 2.563 0 00.602-1.847v-1.343a2.563 2.563 0 00-.602-1.842 2.405 2.405 0 00-3.227 0 2.563 2.563 0 00-.602 1.842v1.327a2.569 2.569 0 00.602 1.847 2.149 2.149 0 001.635.617l-.021.022zm5.819-.255h2.888V42.95h-2.888v-1.517h4.733v11.082h2.915v1.517H61.16v-1.517zm13.198 1.717a4.47 4.47 0 01-1.732-.32 3.586 3.586 0 01-1.301-.92c-.37-.42-.65-.913-.823-1.446a6.545 6.545 0 010-3.792 4.123 4.123 0 01.823-1.446c.36-.401.804-.716 1.301-.92a4.851 4.851 0 013.464 0c.496.206.94.52 1.301.92.368.42.646.913.818 1.446a6.545 6.545 0 010 3.792 4.116 4.116 0 01-.818 1.446c-.36.4-.805.714-1.301.92a4.526 4.526 0 01-1.732.32zm0-1.462a2.136 2.136 0 001.613-.623 2.563 2.563 0 00.597-1.847v-1.343a2.557 2.557 0 00-.597-1.842 2.405 2.405 0 00-3.226 0 2.528 2.528 0 00-.603 1.842v1.327a2.545 2.545 0 00.603 1.847 2.15 2.15 0 001.613.617v.022zm15.425 2.215a2.178 2.178 0 01-1.129 2.004 7.135 7.135 0 01-3.448.65 10.38 10.38 0 01-1.904-.146 4.015 4.015 0 01-1.248-.417 1.683 1.683 0 01-.694-.66 1.864 1.864 0 01-.21-.889 1.527 1.527 0 01.393-1.116 2.413 2.413 0 011.124-.585v-.168a1.749 1.749 0 01-.699-.476 1.18 1.18 0 01-.263-.802 1.15 1.15 0 01.44-.98 2.948 2.948 0 011.13-.499v-.086a2.885 2.885 0 01-1.232-1.084 2.968 2.968 0 01-.44-1.625 3.117 3.117 0 01.252-1.267 2.76 2.76 0 01.72-.97c.33-.274.708-.486 1.114-.623a4.59 4.59 0 011.463-.216 4.365 4.365 0 011.613.287v-.287a1.3 1.3 0 01.285-.856 1.107 1.107 0 01.882-.336h1.587V45.3h-2.027v.407c.372.253.675.595.882.996a3.361 3.361 0 01.048 2.67 2.757 2.757 0 01-.72.976 3.257 3.257 0 01-1.114.612 4.723 4.723 0 01-1.463.211 5.315 5.315 0 01-1.076-.103 2.082 2.082 0 00-.607.293.632.632 0 00-.307.541.479.479 0 00.393.51c.315.075.639.11.963.102h1.957c1.173 0 2.017.228 2.539.672a2.225 2.225 0 01.796 1.798zm-1.721.109a.839.839 0 00-.355-.71 2.236 2.236 0 00-1.286-.27h-3.038a1.034 1.034 0 00-.64.996 1.089 1.089 0 00.414.856c.402.28.89.408 1.376.363h1.372a3.27 3.27 0 001.613-.32.992.992 0 00.533-.915h.01zm-2.91-5.184a1.79 1.79 0 001.318-.422 1.54 1.54 0 00.425-1.143v-.472a1.528 1.528 0 00-.425-1.137 2.243 2.243 0 00-2.636 0 1.54 1.54 0 00-.42 1.137v.46a1.571 1.571 0 00.42 1.144c.362.313.832.468 1.307.433h.011zm7.094 2.605h2.974V46.79h-2.974v-1.517h4.813v7.27h2.792v1.516h-7.616l.01-1.544zm3.9-8.867a1.349 1.349 0 01-.985-.287.987.987 0 01-.28-.715v-.357a.976.976 0 01.28-.715 1.299 1.299 0 01.968-.293c.355-.038.711.067.99.293a.972.972 0 01.28.715v.357a.993.993 0 01-.28.715 1.343 1.343 0 01-.985.288h.011zm9.809 10.584a4.81 4.81 0 01-1.791-.32 3.668 3.668 0 01-1.334-.92 4.062 4.062 0 01-.828-1.44 6.368 6.368 0 010-3.792 4.199 4.199 0 01.828-1.452 3.541 3.541 0 011.291-.932 4.276 4.276 0 011.689-.32 4.184 4.184 0 011.656.315c.482.202.916.507 1.269.894.357.4.629.867.802 1.375.193.57.287 1.17.279 1.772v.698h-6.254v.288a2.293 2.293 0 00.645 1.684 2.38 2.38 0 001.775.65 2.764 2.764 0 001.441-.363c.399-.24.733-.575.974-.975l1.151 1.024a3.597 3.597 0 01-1.345 1.3 4.418 4.418 0 01-2.259.514h.011zm-.135-7.778a2.333 2.333 0 00-.903.174c-.267.11-.509.273-.71.482a2.354 2.354 0 00-.463.742 2.522 2.522 0 00-.172.937v.119h4.378v-.173a2.339 2.339 0 00-.581-1.658 2.035 2.035 0 00-1.559-.623h.01zm10.386 7.778a5.88 5.88 0 01-2.442-.46 4.368 4.368 0 01-1.651-1.224l1.135-1.018a3.806 3.806 0 002.99 1.294c.5.022.998-.084 1.447-.309a1.016 1.016 0 00.538-.953.942.942 0 00-.103-.46.806.806 0 00-.285-.304 1.613 1.613 0 00-.435-.19 3.74 3.74 0 00-.538-.102l-1.388-.222a7.277 7.277 0 01-1.032-.217 3.249 3.249 0 01-.936-.439 2.276 2.276 0 01-.678-.72 2.218 2.218 0 01-.258-1.127 2.328 2.328 0 011.022-2.042 4.718 4.718 0 012.689-.693 5.5 5.5 0 012.103.363 4.036 4.036 0 011.479 1.013l-1.033 1.083a3.23 3.23 0 00-.962-.72 3.522 3.522 0 00-1.657-.336c-1.226 0-1.839.395-1.839 1.175a.788.788 0 00.398.775c.292.151.609.247.936.281l1.387.222c.35.056.696.13 1.038.223.332.083.647.224.931.417.275.186.505.432.672.72.188.345.279.734.263 1.127a2.463 2.463 0 01-1.021 2.085 4.646 4.646 0 01-2.781.758h.011z" fill="#fff"/></svg>