<svg version="1.0" xmlns="http://www.w3.org/2000/svg" width="933.333" height="933.333" viewBox="0 0 700 700"><path d="M0 350v350h700V0H0v350zm390-168.9v94.2l-7 26.1c-3.9 14.3-7.3 26.7-7.5 27.4-.6 1.8-1.1 2 23.1-15.9l21.2-15.7 84.6-28 84.6-28 1.5 5.2c.8 2.8 6.2 20.4 11.9 39.1 5.7 18.7 10.1 34.3 9.7 34.6-.3.3-38.4 13.4-84.6 29.2l-84 28.5-26.2 1.4-26.3 1.3 20.6 16 20.5 16 51.6 74.5c28.3 41 51.7 75 52 75.7.3.9-62.7 49.8-64.2 49.8-.2 0-23.9-34.1-52.6-75.9l-52.1-75.8-8.5-25.4c-4.7-14-8.8-25.4-9.2-25.4-.3 0-1.5 2.4-2.5 5.2-1 2.9-5.2 14.5-9.4 25.6l-7.5 20.4-52 75.1c-28.5 41.4-52 75.3-52.1 75.4-.3.3-59.9-45.8-62.4-48.1-1-1 9.2-16.3 49.9-75.2 28.1-40.6 52-74.9 53.2-76.1 1.1-1.2 10.9-9.1 21.9-17.5 17.2-13.2 19.6-15.4 17.6-15.9-1.3-.4-12.9-1.2-25.9-1.8l-23.6-1.1-83.7-29c-46-15.9-84.1-29.2-84.5-29.5-.7-.4 21.9-77.9 23.1-79.1.3-.2 38.5 12.5 84.9 28.4l84.4 28.7 22.5 16.2c12.3 8.9 22.6 16 22.8 15.8.2-.2-3.1-12.5-7.2-27.4l-7.6-27.2V87h79v94.1z"/></svg>